<svg width="20" height="20" viewBox="0 0 20 20" fill="none" xmlns="http://www.w3.org/2000/svg">
  <path d="M10 2C5.58 2 2 5.58 2 10C2 14.42 5.58 18 10 18C14.42 18 18 14.42 18 10C18 5.58 14.42 2 10 2ZM10 16C6.69 16 4 13.31 4 10C4 6.69 6.69 4 10 4C13.31 4 16 6.69 16 10C16 13.31 13.31 16 10 16Z" fill="currentColor" opacity="0.3"/>
  <path d="M6 10C6 10 7.5 7 10 7C12.5 7 14 10 14 10C14 10 12.5 13 10 13C7.5 13 6 10 6 10Z" fill="currentColor" opacity="0.6"/>
  <path d="M14 6L16 4M14 14L16 16M6 6L4 4M6 14L4 16" stroke="currentColor" stroke-width="1.2" stroke-linecap="round" opacity="0.4"/>
  <circle cx="10" cy="10" r="2" fill="currentColor"/>
</svg>
