<?xml version="1.0" encoding="UTF-8"?>
<svg width="24" height="24" viewBox="0 0 24 24" fill="none" xmlns="http://www.w3.org/2000/svg">
    <path d="M12 2C10.89 2 10 2.89 10 4V6C10 7.11 10.89 8 12 8C13.11 8 14 7.11 14 6V4C14 2.89 13.11 2 12 2ZM19.07 4.93L17.66 6.34C19.1 7.79 20 9.79 20 12H22C22 9.22 20.79 6.79 19.07 4.93ZM4.93 4.93C3.21 6.79 2 9.22 2 12H4C4 9.79 4.9 7.79 6.34 6.34L4.93 4.93ZM12 10C10.34 10 9 11.34 9 13V19C9 20.66 10.34 22 12 22C13.66 22 15 20.66 15 19V13C15 11.34 13.66 10 12 10ZM12 20C11.45 20 11 19.55 11 19V13C11 12.45 11.45 12 12 12C12.55 12 13 12.45 13 13V19C13 19.55 12.55 20 12 20Z" fill="currentColor"/>
</svg>